<svg xmlns="http://www.w3.org/2000/svg" viewBox="0 0 298 79.18"><path d="M112.06,44.24a15.85,15.85,0,0,1,6,6.36,19.66,19.66,0,0,1,2.13,9.26,1.8,1.8,0,0,1-.53,1.37,2,2,0,0,1-1.4.5H90.3a14.75,14.75,0,0,0,2.07,7,13.1,13.1,0,0,0,5,4.83,14.16,14.16,0,0,0,7,1.74,16,16,0,0,0,5.23-.9,11.09,11.09,0,0,0,4.17-2.37,2.25,2.25,0,0,1,1.4-.53,1.76,1.76,0,0,1,1.2.4,1.78,1.78,0,0,1,.74,1.4,1.75,1.75,0,0,1-.61,1.26,16.74,16.74,0,0,1-5.56,3.2,18.86,18.86,0,0,1-6.57,1.27A18.34,18.34,0,0,1,95,76.69a16.77,16.77,0,0,1-6.43-6.59,19.46,19.46,0,0,1-2.33-9.57A20.88,20.88,0,0,1,88.4,50.9a16.14,16.14,0,0,1,6.07-6.6,16.83,16.83,0,0,1,8.89-2.37A16.5,16.5,0,0,1,112.06,44.24ZM94.6,49.13a14.64,14.64,0,0,0-4.23,9.13h25.92a13.93,13.93,0,0,0-4-9.13,12.25,12.25,0,0,0-8.94-3.46A12.09,12.09,0,0,0,94.6,49.13Z" transform="translate(-1 -0.41)"></path><path d="M166.23,35.34a3.47,3.47,0,0,1-2.53-1.07,3.54,3.54,0,0,1-1.06-2.6,3.29,3.29,0,0,1,1.1-2.63,3.72,3.72,0,0,1,2.56-1,3.64,3.64,0,0,1,2.5,1,3.32,3.32,0,0,1,1.1,2.63,3.64,3.64,0,0,1-3.67,3.67Zm.07,43.39a2.42,2.42,0,0,1-2.6-2.6V44.87a2.6,2.6,0,0,1,.7-1.9,2.56,2.56,0,0,1,1.9-.7,2.48,2.48,0,0,1,1.84.7,2.6,2.6,0,0,1,.7,1.9V76.13a2.6,2.6,0,0,1-.7,1.9A2.52,2.52,0,0,1,166.3,78.73Z" transform="translate(-1 -0.41)"></path><path d="M166.3,79.26a2.94,2.94,0,0,1-3.12-3.13V44.87a2.94,2.94,0,0,1,3.12-3.13,3,3,0,0,1,2.21.86,3.05,3.05,0,0,1,.85,2.27V76.13a3.07,3.07,0,0,1-.85,2.27A3,3,0,0,1,166.3,79.26Zm0-36.46a1.88,1.88,0,0,0-2.07,2.07V76.13a1.89,1.89,0,0,0,2.07,2.07,2,2,0,0,0,1.46-.54,2,2,0,0,0,.55-1.53V44.87a2,2,0,0,0-.55-1.53A2,2,0,0,0,166.3,42.8Zm-.07-6.94a4,4,0,0,1-2.9-1.22,4.06,4.06,0,0,1-1.22-3,3.86,3.86,0,0,1,1.28-3,4.35,4.35,0,0,1,5.76,0,3.86,3.86,0,0,1,1.28,3,4.17,4.17,0,0,1-4.2,4.19Zm.07-7.26a3.24,3.24,0,0,0-2.22.83,2.84,2.84,0,0,0-.92,2.24,3,3,0,0,0,.92,2.23,2.91,2.91,0,0,0,2.15.91,3.12,3.12,0,0,0,3.15-3.14,2.84,2.84,0,0,0-.92-2.24A3.18,3.18,0,0,0,166.3,28.6Z" transform="translate(-1 -0.41)"></path><path d="M207.26,43.8a14.58,14.58,0,0,1,6,5.83,18.43,18.43,0,0,1,2.16,9.17V76.73a2,2,0,0,1-.56,1.43,2,2,0,0,1-3.43-1.43V58.8q0-6.33-3.57-9.67a13.09,13.09,0,0,0-9.3-3.33,14.91,14.91,0,0,0-6.43,1.37,11.2,11.2,0,0,0-4.57,3.8,9.28,9.28,0,0,0-1.66,5.36v20.4a2,2,0,0,1-.54,1.43,1.89,1.89,0,0,1-1.46.57,1.93,1.93,0,0,1-2-2V44.27a1.92,1.92,0,0,1,.56-1.47,2,2,0,0,1,1.44-.53,1.85,1.85,0,0,1,2,2v3.47a15.72,15.72,0,0,1,5.53-4.37,16.19,16.19,0,0,1,7.13-1.57A18.56,18.56,0,0,1,207.26,43.8Z" transform="translate(-1 -0.41)"></path><path d="M243.35,79.06a18.85,18.85,0,0,1-9.53-2.4,17.43,17.43,0,0,1-6.6-6.6,18.85,18.85,0,0,1-2.4-9.53,19,19,0,0,1,2.4-9.6,17.4,17.4,0,0,1,6.6-6.59,20,20,0,0,1,19,0,17.51,17.51,0,0,1,6.56,6.59,19.56,19.56,0,0,1,2.47,9.6,18.66,18.66,0,0,1-2.43,9.53,17.86,17.86,0,0,1-6.6,6.6A18.71,18.71,0,0,1,243.35,79.06Zm0-4.67a13.31,13.31,0,0,0,6.93-1.8,12.71,12.71,0,0,0,4.8-4.93,14.53,14.53,0,0,0,1.73-7.13,14.73,14.73,0,0,0-1.73-7.16,12.75,12.75,0,0,0-4.8-5,14.24,14.24,0,0,0-13.86,0,12.89,12.89,0,0,0-4.83,5,14.42,14.42,0,0,0-1.77,7.16,14.23,14.23,0,0,0,1.77,7.13,12.85,12.85,0,0,0,4.83,4.93A13.31,13.31,0,0,0,243.35,74.39Z" transform="translate(-1 -0.41)"></path><path d="M243.35,79.59a19.43,19.43,0,0,1-9.79-2.47,18,18,0,0,1-6.8-6.8,19.43,19.43,0,0,1-2.47-9.79,19.61,19.61,0,0,1,2.47-9.86,18,18,0,0,1,6.8-6.79,20.58,20.58,0,0,1,19.55,0,18.06,18.06,0,0,1,6.76,6.79,20,20,0,0,1,2.53,9.86,19.28,19.28,0,0,1-2.5,9.8,18.36,18.36,0,0,1-6.79,6.79A19.29,19.29,0,0,1,243.35,79.59Zm0-37.13a18.4,18.4,0,0,0-9.27,2.34,16.86,16.86,0,0,0-6.4,6.39,18.55,18.55,0,0,0-2.33,9.34,18.37,18.37,0,0,0,2.33,9.27,16.88,16.88,0,0,0,6.4,6.4,19.56,19.56,0,0,0,18.5,0A17.37,17.37,0,0,0,259,69.8a18.18,18.18,0,0,0,2.36-9.27,19,19,0,0,0-2.4-9.34,17,17,0,0,0-6.37-6.4A18.29,18.29,0,0,0,243.35,42.46Zm0,32.46a14.05,14.05,0,0,1-7.2-1.87,13.59,13.59,0,0,1-5-5.13,14.81,14.81,0,0,1-1.84-7.39,15.11,15.11,0,0,1,1.83-7.42,13.63,13.63,0,0,1,5-5.16,14.73,14.73,0,0,1,14.4,0,13.38,13.38,0,0,1,5,5.16,16.13,16.13,0,0,1,0,14.81,13.44,13.44,0,0,1-5,5.13A14.05,14.05,0,0,1,243.35,74.92Zm0-27.79a13,13,0,0,0-6.67,1.73A12.48,12.48,0,0,0,232,53.62a14.11,14.11,0,0,0-1.69,6.91A13.88,13.88,0,0,0,232,67.4a12.57,12.57,0,0,0,4.64,4.74,13.7,13.7,0,0,0,13.33,0,12.39,12.39,0,0,0,4.61-4.73,15,15,0,0,0,0-13.79,12.17,12.17,0,0,0-4.6-4.76A12.92,12.92,0,0,0,243.35,47.13Z" transform="translate(-1 -0.41)"></path><path d="M299,77a1.52,1.52,0,0,1-.6,1.27,2,2,0,0,1-1.2.47,2.31,2.31,0,0,1-1.23-.27,4.43,4.43,0,0,1-1-1L283.74,62.6,271.61,78.13a1.57,1.57,0,0,1-1.4.6,1.86,1.86,0,0,1-1.43-.6,2,2,0,0,1-.57-1.4,1.87,1.87,0,0,1,.46-1.27l12.4-15.4L270.14,45.6a2.09,2.09,0,0,1,.1-2.73,1.88,1.88,0,0,1,1.43-.6,2,2,0,0,1,1.47.6l10.66,14.2,11.14-13.6a2.75,2.75,0,0,1,2.06-1.2,1.8,1.8,0,0,1,1.37.53,1.9,1.9,0,0,1,.5,1.34,2.47,2.47,0,0,1-.54,1.46L286.54,59.67,298.4,75.46A2.57,2.57,0,0,1,299,77Z" transform="translate(-1 -0.41)"></path><path d="M156.64,76.46a2.11,2.11,0,0,1-.6,1.47,1.93,1.93,0,0,1-1.44.65A2.58,2.58,0,0,1,153,77.9L132.47,60.37V76.24a2.17,2.17,0,0,1-2.27,2.34,2.35,2.35,0,0,1-1.7-.61,2.25,2.25,0,0,1-.64-1.73V26.91a2.27,2.27,0,0,1,.64-1.74,2.38,2.38,0,0,1,1.7-.6,2.15,2.15,0,0,1,2.27,2.34V58.48l18.81-16.92a2.56,2.56,0,0,1,1.58-.68,2.22,2.22,0,0,1,1.28,4L137.83,59.31l17.83,15.26A2.63,2.63,0,0,1,156.64,76.46Z" transform="translate(-1 -0.41)"></path><path d="M35.15,75A2.65,2.65,0,0,1,34.34,77a2.73,2.73,0,0,1-3.9,0A2.66,2.66,0,0,1,29.62,75V3.17a2.66,2.66,0,0,1,.82-1.94,2.73,2.73,0,0,1,3.9,0,2.65,2.65,0,0,1,.81,1.94Z" transform="translate(-1 -0.41)"></path><path d="M42.63,46.49l2,1.35L63,73.31a2.94,2.94,0,0,1,.59,1.92,2.7,2.7,0,0,1-.7,1.8,2.38,2.38,0,0,1-1.87.74,2.92,2.92,0,0,1-1.14-.24,2.86,2.86,0,0,1-1-.74L41.29,52.37,39,49.53l2.74-3.46L58.35,23.49a2.55,2.55,0,0,1,2.12-1,2.33,2.33,0,0,1,1.8.74A2.89,2.89,0,0,1,63,25a2.69,2.69,0,0,1-.5,1.81L45.11,50.46l-2.41,2" transform="translate(-1 -0.41)"></path><path d="M21.91,52.44l-2.4-2L2.1,26.82A2.69,2.69,0,0,1,1.6,25a2.89,2.89,0,0,1,.75-1.77,2.31,2.31,0,0,1,1.8-.74,2.55,2.55,0,0,1,2.12,1L22.83,46.07l2.75,3.46-2.25,2.84L5.71,76.79a2.9,2.9,0,0,1-1,.74,2.83,2.83,0,0,1-1.13.24A2.38,2.38,0,0,1,1.71,77,2.76,2.76,0,0,1,1,75.23a3,3,0,0,1,.6-1.92L20,47.84l2-1.35" transform="translate(-1 -0.41)"></path></svg>